<mxfile host="app.diagrams.net" modified="2023-01-11T10:40:56.444Z" agent="5.0 (Windows NT 10.0; Win64; x64) AppleWebKit/537.36 (KHTML, like Gecko) Chrome/108.0.0.0 Safari/537.36" version="20.8.3" etag="0Lnap82B-k3QwXbgEr4H" type="github">
  <diagram id="nL5-8EnjLw5EPl-GmkvS" name="Page-1">
    <mxGraphModel dx="1820" dy="578" grid="1" gridSize="10" guides="1" tooltips="1" connect="1" arrows="1" fold="1" page="1" pageScale="1" pageWidth="827" pageHeight="1169" math="0" shadow="0">
      <root>
        <mxCell id="0" />
        <mxCell id="1" parent="0" />
        <mxCell id="eSa4I-ssGhhSLL-wAWN1-85" style="edgeStyle=orthogonalEdgeStyle;rounded=0;orthogonalLoop=1;jettySize=auto;html=1;exitX=0.5;exitY=1;exitDx=0;exitDy=0;entryX=0.5;entryY=0;entryDx=0;entryDy=0;entryPerimeter=0;" edge="1" parent="1" source="eSa4I-ssGhhSLL-wAWN1-37" target="eSa4I-ssGhhSLL-wAWN1-82">
          <mxGeometry relative="1" as="geometry" />
        </mxCell>
        <mxCell id="eSa4I-ssGhhSLL-wAWN1-90" value="" style="edgeStyle=orthogonalEdgeStyle;rounded=0;orthogonalLoop=1;jettySize=auto;html=1;" edge="1" parent="1" source="eSa4I-ssGhhSLL-wAWN1-37" target="eSa4I-ssGhhSLL-wAWN1-82">
          <mxGeometry relative="1" as="geometry" />
        </mxCell>
        <mxCell id="eSa4I-ssGhhSLL-wAWN1-37" value="" style="rounded=0;whiteSpace=wrap;html=1;" vertex="1" parent="1">
          <mxGeometry x="160" y="30" width="530" height="200" as="geometry" />
        </mxCell>
        <mxCell id="eSa4I-ssGhhSLL-wAWN1-38" value="" style="sketch=0;pointerEvents=1;shadow=0;dashed=0;html=1;strokeColor=none;fillColor=#505050;labelPosition=center;verticalLabelPosition=bottom;verticalAlign=top;outlineConnect=0;align=center;shape=mxgraph.office.devices.workstation_pc;" vertex="1" parent="1">
          <mxGeometry x="200" y="100.5" width="53" height="59" as="geometry" />
        </mxCell>
        <mxCell id="eSa4I-ssGhhSLL-wAWN1-39" value="" style="sketch=0;pointerEvents=1;shadow=0;dashed=0;html=1;strokeColor=none;fillColor=#505050;labelPosition=center;verticalLabelPosition=bottom;verticalAlign=top;outlineConnect=0;align=center;shape=mxgraph.office.devices.workstation_pc;" vertex="1" parent="1">
          <mxGeometry x="300" y="100.5" width="53" height="59" as="geometry" />
        </mxCell>
        <mxCell id="eSa4I-ssGhhSLL-wAWN1-40" value="" style="sketch=0;pointerEvents=1;shadow=0;dashed=0;html=1;strokeColor=none;fillColor=#505050;labelPosition=center;verticalLabelPosition=bottom;verticalAlign=top;outlineConnect=0;align=center;shape=mxgraph.office.devices.workstation_pc;" vertex="1" parent="1">
          <mxGeometry x="600" y="100.5" width="53" height="59" as="geometry" />
        </mxCell>
        <mxCell id="eSa4I-ssGhhSLL-wAWN1-41" value="" style="sketch=0;pointerEvents=1;shadow=0;dashed=0;html=1;strokeColor=none;fillColor=#505050;labelPosition=center;verticalLabelPosition=bottom;verticalAlign=top;outlineConnect=0;align=center;shape=mxgraph.office.devices.workstation_pc;" vertex="1" parent="1">
          <mxGeometry x="398.5" y="100.5" width="53" height="59" as="geometry" />
        </mxCell>
        <mxCell id="eSa4I-ssGhhSLL-wAWN1-42" value="" style="sketch=0;pointerEvents=1;shadow=0;dashed=0;html=1;strokeColor=none;fillColor=#505050;labelPosition=center;verticalLabelPosition=bottom;verticalAlign=top;outlineConnect=0;align=center;shape=mxgraph.office.devices.workstation_pc;" vertex="1" parent="1">
          <mxGeometry x="500" y="100.5" width="53" height="59" as="geometry" />
        </mxCell>
        <mxCell id="eSa4I-ssGhhSLL-wAWN1-50" style="edgeStyle=orthogonalEdgeStyle;rounded=0;orthogonalLoop=1;jettySize=auto;html=1;exitX=0.5;exitY=1;exitDx=0;exitDy=0;entryX=0.25;entryY=0;entryDx=0;entryDy=0;" edge="1" parent="1" source="eSa4I-ssGhhSLL-wAWN1-43" target="eSa4I-ssGhhSLL-wAWN1-49">
          <mxGeometry relative="1" as="geometry" />
        </mxCell>
        <mxCell id="eSa4I-ssGhhSLL-wAWN1-43" value="" style="image;html=1;image=img/lib/clip_art/networking/Firewall_02_128x128.png" vertex="1" parent="1">
          <mxGeometry x="385" y="340" width="80" height="80" as="geometry" />
        </mxCell>
        <mxCell id="eSa4I-ssGhhSLL-wAWN1-74" style="edgeStyle=orthogonalEdgeStyle;rounded=0;orthogonalLoop=1;jettySize=auto;html=1;exitX=0.5;exitY=0;exitDx=0;exitDy=0;entryX=0;entryY=0.5;entryDx=0;entryDy=0;entryPerimeter=0;" edge="1" parent="1" source="eSa4I-ssGhhSLL-wAWN1-45" target="eSa4I-ssGhhSLL-wAWN1-73">
          <mxGeometry relative="1" as="geometry" />
        </mxCell>
        <mxCell id="eSa4I-ssGhhSLL-wAWN1-88" style="edgeStyle=orthogonalEdgeStyle;rounded=0;orthogonalLoop=1;jettySize=auto;html=1;exitX=0.25;exitY=1;exitDx=0;exitDy=0;entryX=0.536;entryY=0.273;entryDx=0;entryDy=0;entryPerimeter=0;" edge="1" parent="1" source="eSa4I-ssGhhSLL-wAWN1-45" target="eSa4I-ssGhhSLL-wAWN1-87">
          <mxGeometry relative="1" as="geometry" />
        </mxCell>
        <mxCell id="eSa4I-ssGhhSLL-wAWN1-45" value="" style="rounded=0;whiteSpace=wrap;html=1;labelBackgroundColor=default;" vertex="1" parent="1">
          <mxGeometry x="40.5" y="400" width="250" height="150" as="geometry" />
        </mxCell>
        <mxCell id="eSa4I-ssGhhSLL-wAWN1-46" value="" style="aspect=fixed;perimeter=ellipsePerimeter;html=1;align=center;shadow=0;dashed=0;spacingTop=3;image;image=img/lib/active_directory/active_directory.svg;labelBackgroundColor=default;" vertex="1" parent="1">
          <mxGeometry x="50.5" y="451.5" width="50" height="42.5" as="geometry" />
        </mxCell>
        <mxCell id="eSa4I-ssGhhSLL-wAWN1-47" value="" style="strokeWidth=2;html=1;shape=mxgraph.lean_mapping.mrp_erp;whiteSpace=wrap;labelBackgroundColor=default;" vertex="1" parent="1">
          <mxGeometry x="135.5" y="440" width="60" height="75.25" as="geometry" />
        </mxCell>
        <mxCell id="eSa4I-ssGhhSLL-wAWN1-52" style="edgeStyle=orthogonalEdgeStyle;rounded=0;orthogonalLoop=1;jettySize=auto;html=1;exitX=1;exitY=0.5;exitDx=0;exitDy=0;entryX=0.5;entryY=1;entryDx=0;entryDy=0;" edge="1" parent="1" source="eSa4I-ssGhhSLL-wAWN1-49" target="eSa4I-ssGhhSLL-wAWN1-51">
          <mxGeometry relative="1" as="geometry" />
        </mxCell>
        <mxCell id="eSa4I-ssGhhSLL-wAWN1-54" style="edgeStyle=orthogonalEdgeStyle;rounded=0;orthogonalLoop=1;jettySize=auto;html=1;exitX=0.5;exitY=1;exitDx=0;exitDy=0;entryX=0.5;entryY=0;entryDx=0;entryDy=0;" edge="1" parent="1" source="eSa4I-ssGhhSLL-wAWN1-49" target="eSa4I-ssGhhSLL-wAWN1-53">
          <mxGeometry relative="1" as="geometry" />
        </mxCell>
        <mxCell id="eSa4I-ssGhhSLL-wAWN1-64" style="edgeStyle=orthogonalEdgeStyle;rounded=0;orthogonalLoop=1;jettySize=auto;html=1;exitX=0;exitY=0.75;exitDx=0;exitDy=0;" edge="1" parent="1" source="eSa4I-ssGhhSLL-wAWN1-49" target="eSa4I-ssGhhSLL-wAWN1-63">
          <mxGeometry relative="1" as="geometry">
            <Array as="points">
              <mxPoint x="405" y="590" />
              <mxPoint x="205" y="590" />
            </Array>
          </mxGeometry>
        </mxCell>
        <mxCell id="eSa4I-ssGhhSLL-wAWN1-49" value="" style="image;html=1;image=img/lib/clip_art/networking/Wireless_Router_128x128.png;labelBackgroundColor=default;" vertex="1" parent="1">
          <mxGeometry x="404.5" y="470" width="80" height="80" as="geometry" />
        </mxCell>
        <mxCell id="eSa4I-ssGhhSLL-wAWN1-51" value="" style="aspect=fixed;perimeter=ellipsePerimeter;html=1;align=center;shadow=0;dashed=0;spacingTop=3;image;image=img/lib/active_directory/internet_cloud.svg;labelBackgroundColor=default;" vertex="1" parent="1">
          <mxGeometry x="560" y="309" width="144.44" height="91" as="geometry" />
        </mxCell>
        <mxCell id="eSa4I-ssGhhSLL-wAWN1-56" style="edgeStyle=orthogonalEdgeStyle;rounded=0;orthogonalLoop=1;jettySize=auto;html=1;exitX=0.5;exitY=1;exitDx=0;exitDy=0;entryX=0;entryY=0.75;entryDx=0;entryDy=0;" edge="1" parent="1" source="eSa4I-ssGhhSLL-wAWN1-53" target="eSa4I-ssGhhSLL-wAWN1-55">
          <mxGeometry relative="1" as="geometry" />
        </mxCell>
        <mxCell id="eSa4I-ssGhhSLL-wAWN1-53" value="" style="image;html=1;image=img/lib/clip_art/networking/Firewall_02_128x128.png" vertex="1" parent="1">
          <mxGeometry x="404.5" y="640" width="80" height="80" as="geometry" />
        </mxCell>
        <mxCell id="eSa4I-ssGhhSLL-wAWN1-55" value="" style="rounded=0;whiteSpace=wrap;html=1;labelBackgroundColor=default;" vertex="1" parent="1">
          <mxGeometry x="572.22" y="680" width="227.78" height="120" as="geometry" />
        </mxCell>
        <mxCell id="eSa4I-ssGhhSLL-wAWN1-59" style="edgeStyle=orthogonalEdgeStyle;rounded=0;orthogonalLoop=1;jettySize=auto;html=1;exitX=1;exitY=0.56;exitDx=0;exitDy=0;exitPerimeter=0;entryX=0;entryY=0.5;entryDx=0;entryDy=0;" edge="1" parent="1" source="eSa4I-ssGhhSLL-wAWN1-57" target="eSa4I-ssGhhSLL-wAWN1-58">
          <mxGeometry relative="1" as="geometry" />
        </mxCell>
        <mxCell id="eSa4I-ssGhhSLL-wAWN1-57" value="" style="outlineConnect=0;dashed=0;verticalLabelPosition=bottom;verticalAlign=top;align=center;html=1;shape=mxgraph.aws3.waf;fillColor=#759C3E;gradientColor=none;labelBackgroundColor=default;" vertex="1" parent="1">
          <mxGeometry x="580" y="720" width="52" height="73" as="geometry" />
        </mxCell>
        <mxCell id="eSa4I-ssGhhSLL-wAWN1-58" value="" style="aspect=fixed;perimeter=ellipsePerimeter;html=1;align=center;shadow=0;dashed=0;spacingTop=3;image;image=img/lib/active_directory/web_server.svg;labelBackgroundColor=default;" vertex="1" parent="1">
          <mxGeometry x="740" y="692" width="40" height="50" as="geometry" />
        </mxCell>
        <mxCell id="eSa4I-ssGhhSLL-wAWN1-61" value="" style="fontColor=#0066CC;verticalAlign=top;verticalLabelPosition=bottom;labelPosition=center;align=center;html=1;outlineConnect=0;fillColor=#CCCCCC;strokeColor=#6881B3;gradientColor=none;gradientDirection=north;strokeWidth=2;shape=mxgraph.networks.mail_server;labelBackgroundColor=default;" vertex="1" parent="1">
          <mxGeometry x="733.5" y="748" width="53" height="45" as="geometry" />
        </mxCell>
        <mxCell id="eSa4I-ssGhhSLL-wAWN1-62" value="" style="rounded=1;whiteSpace=wrap;html=1;labelBackgroundColor=default;" vertex="1" parent="1">
          <mxGeometry x="50" y="720" width="250" height="120" as="geometry" />
        </mxCell>
        <mxCell id="eSa4I-ssGhhSLL-wAWN1-65" value="" style="edgeStyle=orthogonalEdgeStyle;rounded=0;orthogonalLoop=1;jettySize=auto;html=1;" edge="1" parent="1" source="eSa4I-ssGhhSLL-wAWN1-63" target="eSa4I-ssGhhSLL-wAWN1-62">
          <mxGeometry relative="1" as="geometry" />
        </mxCell>
        <mxCell id="eSa4I-ssGhhSLL-wAWN1-63" value="" style="html=1;strokeWidth=1;shadow=0;dashed=0;shape=mxgraph.ios7.misc.vpn;fillColor=#007AFF;strokeColor=none;buttonText=;strokeColor2=#222222;fontColor=#222222;fontSize=8;verticalLabelPosition=bottom;verticalAlign=top;align=center;sketch=0;labelBackgroundColor=default;" vertex="1" parent="1">
          <mxGeometry x="180" y="640" width="50" height="40" as="geometry" />
        </mxCell>
        <mxCell id="eSa4I-ssGhhSLL-wAWN1-66" value="" style="sketch=0;pointerEvents=1;shadow=0;dashed=0;html=1;strokeColor=none;fillColor=#505050;labelPosition=center;verticalLabelPosition=bottom;verticalAlign=top;outlineConnect=0;align=center;shape=mxgraph.office.devices.workstation_pc;" vertex="1" parent="1">
          <mxGeometry x="70.5" y="748" width="53" height="59" as="geometry" />
        </mxCell>
        <mxCell id="eSa4I-ssGhhSLL-wAWN1-67" value="" style="sketch=0;pointerEvents=1;shadow=0;dashed=0;html=1;strokeColor=none;fillColor=#505050;labelPosition=center;verticalLabelPosition=bottom;verticalAlign=top;outlineConnect=0;align=center;shape=mxgraph.office.devices.workstation_pc;" vertex="1" parent="1">
          <mxGeometry x="210" y="750.5" width="53" height="59" as="geometry" />
        </mxCell>
        <mxCell id="eSa4I-ssGhhSLL-wAWN1-72" style="edgeStyle=orthogonalEdgeStyle;rounded=0;orthogonalLoop=1;jettySize=auto;html=1;exitX=0.25;exitY=1;exitDx=0;exitDy=0;entryX=0.25;entryY=0;entryDx=0;entryDy=0;" edge="1" parent="1" source="eSa4I-ssGhhSLL-wAWN1-68" target="eSa4I-ssGhhSLL-wAWN1-62">
          <mxGeometry relative="1" as="geometry" />
        </mxCell>
        <mxCell id="eSa4I-ssGhhSLL-wAWN1-68" value="" style="image;html=1;image=img/lib/clip_art/networking/Firewall_02_128x128.png" vertex="1" parent="1">
          <mxGeometry x="80" y="620" width="80" height="80" as="geometry" />
        </mxCell>
        <mxCell id="eSa4I-ssGhhSLL-wAWN1-75" style="edgeStyle=orthogonalEdgeStyle;rounded=0;orthogonalLoop=1;jettySize=auto;html=1;exitX=1;exitY=0.5;exitDx=0;exitDy=0;exitPerimeter=0;" edge="1" parent="1" source="eSa4I-ssGhhSLL-wAWN1-73" target="eSa4I-ssGhhSLL-wAWN1-43">
          <mxGeometry relative="1" as="geometry" />
        </mxCell>
        <mxCell id="eSa4I-ssGhhSLL-wAWN1-73" value="" style="sketch=0;points=[[0.015,0.015,0],[0.985,0.015,0],[0.985,0.985,0],[0.015,0.985,0],[0.25,0,0],[0.5,0,0],[0.75,0,0],[1,0.25,0],[1,0.5,0],[1,0.75,0],[0.75,1,0],[0.5,1,0],[0.25,1,0],[0,0.75,0],[0,0.5,0],[0,0.25,0]];verticalLabelPosition=bottom;html=1;verticalAlign=top;aspect=fixed;align=center;pointerEvents=1;shape=mxgraph.cisco19.rect;prIcon=ips_ids;fillColor=#FAFAFA;strokeColor=#005073;labelBackgroundColor=default;" vertex="1" parent="1">
          <mxGeometry x="236" y="309" width="64" height="50" as="geometry" />
        </mxCell>
        <mxCell id="eSa4I-ssGhhSLL-wAWN1-76" value="VLAN User" style="text;html=1;strokeColor=none;fillColor=none;align=center;verticalAlign=middle;whiteSpace=wrap;rounded=0;labelBackgroundColor=default;" vertex="1" parent="1">
          <mxGeometry x="170" y="40" width="110" height="30" as="geometry" />
        </mxCell>
        <mxCell id="eSa4I-ssGhhSLL-wAWN1-77" value="DMZ" style="text;html=1;strokeColor=none;fillColor=none;align=center;verticalAlign=middle;whiteSpace=wrap;rounded=0;labelBackgroundColor=default;" vertex="1" parent="1">
          <mxGeometry x="576" y="680" width="60" height="30" as="geometry" />
        </mxCell>
        <mxCell id="eSa4I-ssGhhSLL-wAWN1-79" value="VLAN VPN" style="text;html=1;strokeColor=none;fillColor=none;align=center;verticalAlign=middle;whiteSpace=wrap;rounded=0;labelBackgroundColor=default;" vertex="1" parent="1">
          <mxGeometry x="120" y="725" width="110" height="30" as="geometry" />
        </mxCell>
        <mxCell id="eSa4I-ssGhhSLL-wAWN1-80" value="VLAN Interne" style="text;html=1;strokeColor=none;fillColor=none;align=center;verticalAlign=middle;whiteSpace=wrap;rounded=0;labelBackgroundColor=default;" vertex="1" parent="1">
          <mxGeometry x="50.5" y="410" width="89.5" height="30" as="geometry" />
        </mxCell>
        <mxCell id="eSa4I-ssGhhSLL-wAWN1-81" value="" style="shape=message;html=1;html=1;outlineConnect=0;labelPosition=center;verticalLabelPosition=bottom;align=center;verticalAlign=top;labelBackgroundColor=default;" vertex="1" parent="1">
          <mxGeometry x="221" y="454" width="60" height="40" as="geometry" />
        </mxCell>
        <mxCell id="eSa4I-ssGhhSLL-wAWN1-86" style="edgeStyle=orthogonalEdgeStyle;rounded=0;orthogonalLoop=1;jettySize=auto;html=1;exitX=0.5;exitY=1;exitDx=0;exitDy=0;exitPerimeter=0;entryX=0.5;entryY=0;entryDx=0;entryDy=0;" edge="1" parent="1" source="eSa4I-ssGhhSLL-wAWN1-82" target="eSa4I-ssGhhSLL-wAWN1-43">
          <mxGeometry relative="1" as="geometry" />
        </mxCell>
        <mxCell id="eSa4I-ssGhhSLL-wAWN1-82" value="" style="sketch=0;points=[[0.015,0.015,0],[0.985,0.015,0],[0.985,0.985,0],[0.015,0.985,0],[0.25,0,0],[0.5,0,0],[0.75,0,0],[1,0.25,0],[1,0.5,0],[1,0.75,0],[0.75,1,0],[0.5,1,0],[0.25,1,0],[0,0.75,0],[0,0.5,0],[0,0.25,0]];verticalLabelPosition=bottom;html=1;verticalAlign=top;aspect=fixed;align=center;pointerEvents=1;shape=mxgraph.cisco19.rect;prIcon=ips_ids;fillColor=#FAFAFA;strokeColor=#005073;labelBackgroundColor=default;" vertex="1" parent="1">
          <mxGeometry x="393" y="270" width="64" height="50" as="geometry" />
        </mxCell>
        <mxCell id="eSa4I-ssGhhSLL-wAWN1-89" style="edgeStyle=orthogonalEdgeStyle;rounded=0;orthogonalLoop=1;jettySize=auto;html=1;exitX=0.25;exitY=1;exitDx=0;exitDy=0;exitPerimeter=0;entryX=0;entryY=0.5;entryDx=0;entryDy=0;" edge="1" parent="1" source="eSa4I-ssGhhSLL-wAWN1-87" target="eSa4I-ssGhhSLL-wAWN1-68">
          <mxGeometry relative="1" as="geometry" />
        </mxCell>
        <mxCell id="eSa4I-ssGhhSLL-wAWN1-87" value="" style="sketch=0;points=[[0.015,0.015,0],[0.985,0.015,0],[0.985,0.985,0],[0.015,0.985,0],[0.25,0,0],[0.5,0,0],[0.75,0,0],[1,0.25,0],[1,0.5,0],[1,0.75,0],[0.75,1,0],[0.5,1,0],[0.25,1,0],[0,0.75,0],[0,0.5,0],[0,0.25,0]];verticalLabelPosition=bottom;html=1;verticalAlign=top;aspect=fixed;align=center;pointerEvents=1;shape=mxgraph.cisco19.rect;prIcon=ips_ids;fillColor=#FAFAFA;strokeColor=#005073;labelBackgroundColor=default;" vertex="1" parent="1">
          <mxGeometry x="-14" y="590" width="64" height="50" as="geometry" />
        </mxCell>
      </root>
    </mxGraphModel>
  </diagram>
</mxfile>
